<!-- <svg id="Layer_1" data-name="Layer 1" xmlns="http://www.w3.org/2000/svg" viewBox="0 0 64 64"><defs><style>.cls-1{fill:#0795ff;}.cls-2{fill:#dfe8f4;}</style></defs><title>medical, medicine, healthcare, health, folder</title><path class="cls-1" d="M26.55,24.68V22.87a1.25,1.25,0,0,0-1.25-1.25H12.77a1.25,1.25,0,0,0-1.25,1.25V54.44A1.56,1.56,0,0,0,13.08,56H50.92a1.56,1.56,0,0,0,1.56-1.56V26.07a1.25,1.25,0,0,0-1.25-1.25H26.69A.14.14,0,0,1,26.55,24.68Z"/><path class="cls-2" d="M51.3,56H12.7a1.34,1.34,0,0,1-1.33-1.16L8.2,31.07a1.34,1.34,0,0,1,1.33-1.52H54.47a1.34,1.34,0,0,1,1.33,1.52L52.63,54.84A1.34,1.34,0,0,1,51.3,56Z"/><rect class="cls-1" x="29.15" y="36.56" width="5.7" height="12.42" rx="0.43"/><rect class="cls-1" x="29.15" y="36.56" width="5.7" height="12.42" rx="0.43" transform="translate(74.77 10.77) rotate(90)"/></svg>
 -->

 <svg
  xmlns="http://www.w3.org/2000/svg"
  width="100"
  height="100"
  viewBox="0 0 100 100"
>
  <!-- Background Circle -->
  <circle cx="50" cy="50" r="45" fill="#FF6347" />

  <!-- Hospital Building -->
  <rect x="30" y="30" width="40" height="40" fill="#fff" />
  <rect x="35" y="35" width="30" height="30" fill="#FF6347" />
  <rect x="40" y="40" width="20" height="20" fill="#fff" />

  <!-- Cross Symbol (Plus Sign) -->
  <rect x="45" y="30" width="10" height="40" fill="#FF6347" />
  <rect x="30" y="45" width="40" height="10" fill="#FF6347" />

  <!-- Text -->
  <text x="50" y="80" font-size="12" text-anchor="middle" fill="#000">
    Clinicals
  </text>
</svg>
